<svg height="463pt" viewBox="-31 0 463 463.98563" width="463pt" xmlns="http://www.w3.org/2000/svg"><path d="m58.011719 287.984375c9.28125 58.5625 61.359375 104.640625 126.480469 111.203125v-223.203125h-80v-32h80v-34.320313c-26.644532-7.941406-43.425782-34.234374-39.414063-61.75 4.015625-27.511718 27.609375-47.914062 55.414063-47.914062 27.804687 0 51.398437 20.402344 55.414062 47.914062 4.015625 27.515626-12.765625 53.808594-39.414062 61.75v34.320313h80v32h-80v223.203125c65.121093-6.5625 117.199218-52.640625 126.480468-111.203125h-22.480468l40-48 40 48h-24.878907c-8.320312 76.160156-75.199219 136.480469-159.121093 143.359375v16.640625l-16 16-16-16v-16.640625c-83.917969-6.878906-150.800782-67.199219-159.121094-143.359375h-24.878906l40-48 40 48zm0 0" fill="#003d5c"/><path d="m224.492188 55.984375c0 13.257813-10.746094 24-24 24-13.253907 0-24-10.742187-24-24 0-13.253906 10.746093-24 24-24 13.253906 0 24 10.746094 24 24zm0 0" fill="#fff"/></svg>