<svg id="svg" viewBox="0 0 1440 600" xmlns="http://www.w3.org/2000/svg" class="transition duration-300 ease-in-out delay-150"><defs><linearGradient id="gradient"><stop offset="5%" stop-color="#002bdc66"></stop><stop offset="95%" stop-color="#32ded466"></stop></linearGradient></defs><path d="M 0,600 C 0,600 0,150 0,150 C 84.08717948717953,140.85897435897436 168.17435897435905,131.71794871794873 258,118 C 347.82564102564095,104.28205128205128 443.3897435897435,85.9871794871795 521,100 C 598.6102564102565,114.0128205128205 658.2666666666667,160.33333333333331 739,181 C 819.7333333333333,201.66666666666669 921.5435897435898,196.67948717948718 996,179 C 1070.4564102564102,161.32051282051282 1117.5589743589744,130.94871794871796 1187,124 C 1256.4410256410256,117.05128205128204 1348.2205128205128,133.52564102564102 1440,150 C 1440,150 1440,600 1440,600 Z" stroke="none" stroke-width="0" fill="url(#gradient)" class="transition-all duration-300 ease-in-out delay-150"></path><defs><linearGradient id="gradient"><stop offset="5%" stop-color="#002bdc88"></stop><stop offset="95%" stop-color="#32ded488"></stop></linearGradient></defs><path d="M 0,600 C 0,600 0,300 0,300 C 95.9794871794872,301.67435897435894 191.9589743589744,303.34871794871793 264,315 C 336.0410256410256,326.65128205128207 384.1435897435897,348.2794871794872 453,334 C 521.8564102564103,319.7205128205128 611.4666666666667,269.5333333333333 694,246 C 776.5333333333333,222.46666666666673 851.9897435897435,225.58717948717953 935,252 C 1018.0102564102565,278.4128205128205 1108.574358974359,328.1179487179487 1194,340 C 1279.425641025641,351.8820512820513 1359.7128205128206,325.94102564102565 1440,300 C 1440,300 1440,600 1440,600 Z" stroke="none" stroke-width="0" fill="url(#gradient)" class="transition-all duration-300 ease-in-out delay-150"></path><defs><linearGradient id="gradient"><stop offset="5%" stop-color="#002bdcff"></stop><stop offset="95%" stop-color="#32ded4ff"></stop></linearGradient></defs><path d="M 0,600 C 0,600 0,450 0,450 C 85.66666666666666,452.83846153846156 171.33333333333331,455.6769230769231 259,460 C 346.6666666666667,464.3230769230769 436.3333333333335,470.1307692307692 504,456 C 571.6666666666665,441.8692307692308 617.3333333333333,407.8 704,403 C 790.6666666666667,398.2 918.3333333333335,422.6692307692307 1003,445 C 1087.6666666666665,467.3307692307693 1129.3333333333333,487.5230769230769 1195,488 C 1260.6666666666667,488.4769230769231 1350.3333333333335,469.23846153846154 1440,450 C 1440,450 1440,600 1440,600 Z" stroke="none" stroke-width="0" fill="url(#gradient)" class="wave"></path></svg>